<svg width="137" height="137" viewBox="0 0 137 137" fill="none" xmlns="http://www.w3.org/2000/svg">
<path d="M51.986 22.367C43.479 25.412 35.98 30.75 30.318 37.79C24.655 44.831 21.049 53.3 19.899 62.261" stroke="#F97D7D" stroke-width="9" stroke-linecap="round"/>
<path d="M20.693 79.246C22.717 88.251 27.244 96.502 33.752 103.048C40.26 109.594 48.484 114.168 57.478 116.244C66.472 118.321 75.869 117.814 84.588 114.784C93.307 111.753 100.992 106.321 106.759 99.114C112.526 91.907 116.14 83.218 117.185 74.047C118.23 64.875 116.663 55.596 112.665 47.276C108.667 38.957 102.4 31.935 94.587 27.021C86.773 22.107 77.73 19.5 68.5 19.5" stroke="#B4E44A" stroke-width="9" stroke-linecap="round"/>
<path d="M10.6903 41.04C4.7396 53.568 3.0195 67.69 5.7889 81.279C8.5582 94.869 15.6672 107.192 26.046 116.392C36.424 125.592 49.51 131.172 63.334 132.291C77.158 133.411 90.971 130.009 102.695 122.599C114.418 115.189 123.418 104.171 128.338 91.204C133.258 78.237 133.832 64.022 129.975 50.7C126.118 37.378 118.037 25.67 106.95 17.338C95.863 9.005 82.369 4.5 68.5 4.5" stroke="#A69AEC" stroke-width="9" stroke-linecap="round"/>
</svg>
